<?xml version="1.0" encoding="UTF-8" standalone="no"?>
<!-- Created with Inkscape (http://www.inkscape.org/) -->

<svg
   xmlns:osb="http://www.openswatchbook.org/uri/2009/osb"
   xmlns:dc="http://purl.org/dc/elements/1.1/"
   xmlns:cc="http://creativecommons.org/ns#"
   xmlns:rdf="http://www.w3.org/1999/02/22-rdf-syntax-ns#"
   xmlns:svg="http://www.w3.org/2000/svg"
   xmlns="http://www.w3.org/2000/svg"
   xmlns:sodipodi="http://sodipodi.sourceforge.net/DTD/sodipodi-0.dtd"
   xmlns:inkscape="http://www.inkscape.org/namespaces/inkscape"
   width="744.09448819"
   height="1052.3622047"
   id="svg2"
   version="1.1"
   inkscape:version="0.48.4 r9939"
   sodipodi:docname="cangjie.svg">
  <defs
     id="defs4">
    <linearGradient
       id="linearGradient3845"
       osb:paint="solid">
      <stop
         style="stop-color:#ce5c00;stop-opacity:1;"
         offset="0"
         id="stop3847" />
    </linearGradient>
  </defs>
  <sodipodi:namedview
     id="base"
     pagecolor="#ffffff"
     bordercolor="#666666"
     borderopacity="1.0"
     inkscape:pageopacity="0.0"
     inkscape:pageshadow="2"
     inkscape:zoom="2"
     inkscape:cx="330.20071"
     inkscape:cy="723.27829"
     inkscape:document-units="px"
     inkscape:current-layer="layer14"
     showgrid="false"
     inkscape:snap-global="false"
     showguides="true"
     inkscape:window-width="1366"
     inkscape:window-height="702"
     inkscape:window-x="0"
     inkscape:window-y="27"
     inkscape:window-maximized="1">
    <inkscape:grid
       type="xygrid"
       id="grid2985" />
  </sodipodi:namedview>
  <metadata
     id="metadata7">
    <rdf:RDF>
      <cc:Work
         rdf:about="">
        <dc:format>image/svg+xml</dc:format>
        <dc:type
           rdf:resource="http://purl.org/dc/dcmitype/StillImage" />
        <dc:title />
      </cc:Work>
    </rdf:RDF>
  </metadata>
  <g
     inkscape:label="Cangjie"
     inkscape:groupmode="layer"
     id="layer1"
     style="display:none">
    <text
       xml:space="preserve"
       style="font-size:40px;font-style:normal;font-variant:normal;font-weight:normal;font-stretch:normal;line-height:125%;letter-spacing:0px;word-spacing:0px;fill:#2e3436;fill-opacity:1;stroke:none;font-family:AR PL UKai CN;-inkscape-font-specification:AR PL UKai CN"
       x="141"
       y="398.36218"
       id="text2987"
       sodipodi:linespacing="125%"><tspan
         sodipodi:role="line"
         id="tspan2989"
         x="141"
         y="398.36218"
         style="font-size:172px;fill:#2e3436;fill-opacity:1">倉頡</tspan></text>
  </g>
  <g
     inkscape:groupmode="layer"
     id="layer14"
     inkscape:label="codes"
     style="display:inline">
    <path
       style="fill:none;stroke:#2e3436;stroke-width:1.01974773px;stroke-linecap:butt;stroke-linejoin:miter;stroke-opacity:1;display:inline"
       d="m 232.00988,288.8523 c 11.51842,-7.26048 16.63654,-15.64194 19.98024,-34.48024"
       id="path3022"
       inkscape:connector-curvature="0"
       sodipodi:nodetypes="cc" />
    <path
       style="fill:none;stroke:#2e3436;stroke-width:1px;stroke-linecap:butt;stroke-linejoin:miter;stroke-opacity:1;display:inline"
       d="m 317.25,243.61218 c 7.67639,9.98299 20.24778,18.39972 34.5,21.5"
       id="path3022-4"
       inkscape:connector-curvature="0"
       sodipodi:nodetypes="cc" />
    <path
       style="fill:none;stroke:#2e3436;stroke-width:1px;stroke-linecap:butt;stroke-linejoin:miter;stroke-opacity:1;display:inline"
       d="m 451.75,267.61218 c 10.14965,-14.1361 21.54305,-18.32225 33,-22"
       id="path3022-0"
       inkscape:connector-curvature="0"
       sodipodi:nodetypes="cc" />
    <path
       style="fill:none;stroke:#2e3436;stroke-width:1px;stroke-linecap:butt;stroke-linejoin:miter;stroke-opacity:1;display:inline"
       d="m 458.75,383.11218 c 10.99034,-12.05193 25.13565,-19.10754 40.5,-21"
       id="path3022-6"
       inkscape:connector-curvature="0"
       sodipodi:nodetypes="cc" />
    <path
       style="fill:none;stroke:#2e3436;stroke-width:1px;stroke-linecap:butt;stroke-linejoin:miter;stroke-opacity:1;display:inline"
       d="m 462.25,319.61218 c 13.08585,-3.07577 26.75336,-4.40658 36,-19"
       id="path3022-8"
       inkscape:connector-curvature="0"
       sodipodi:nodetypes="cc" />
    <path
       style="fill:none;stroke:#2e3436;stroke-width:1px;stroke-linecap:butt;stroke-linejoin:miter;stroke-opacity:1;display:inline"
       d="m 301.25,371.61218 c 6.00954,-8.05884 15.29921,-15.1691 33.5,-17"
       id="path3022-7"
       inkscape:connector-curvature="0"
       sodipodi:nodetypes="cc" />
    <path
       style="fill:none;stroke:#2e3436;stroke-width:1px;stroke-linecap:butt;stroke-linejoin:miter;stroke-opacity:1;display:inline"
       d="m 270.75,385.11218 c 5.42172,11.42146 14.26598,21.39715 29.5,26"
       id="path3022-2"
       inkscape:connector-curvature="0"
       sodipodi:nodetypes="cc" />
    <path
       style="fill:none;stroke:#2e3436;stroke-width:1px;stroke-linecap:butt;stroke-linejoin:miter;stroke-opacity:1;display:inline"
       d="m 157.25,353.61218 c 16.67823,-2.1551 33.24383,-4.42283 39.5,-17"
       id="path3022-42"
       inkscape:connector-curvature="0"
       sodipodi:nodetypes="cc" />
    <path
       style="fill:none;stroke:#2e3436;stroke-width:1px;stroke-linecap:butt;stroke-linejoin:miter;stroke-opacity:1;display:inline"
       d="m 176.75,245.61218 c 9.12638,13.49632 21.40674,18.58202 34.5,21.5"
       id="path3022-1"
       inkscape:connector-curvature="0"
       sodipodi:nodetypes="cc" />
    <text
       xml:space="preserve"
       style="font-size:24px;font-style:normal;font-variant:normal;font-weight:normal;font-stretch:normal;line-height:125%;letter-spacing:0px;word-spacing:0px;fill:#000000;fill-opacity:1;stroke:none;display:inline;font-family:Cantarell;-inkscape-font-specification:Cantarell"
       x="159.5"
       y="239.86218"
       id="text3859"
       sodipodi:linespacing="125%"><tspan
         sodipodi:role="line"
         id="tspan3861"
         x="159.5"
         y="239.86218">O</tspan></text>
    <text
       xml:space="preserve"
       style="font-size:24px;font-style:normal;font-variant:normal;font-weight:normal;font-stretch:normal;line-height:125%;letter-spacing:0px;word-spacing:0px;fill:#000000;fill-opacity:1;stroke:none;display:inline;font-family:Cantarell;-inkscape-font-specification:Cantarell"
       x="253"
       y="244.86218"
       id="text3863"
       sodipodi:linespacing="125%"><tspan
         sodipodi:role="line"
         id="tspan3865"
         x="253"
         y="244.86218">I</tspan></text>
    <text
       xml:space="preserve"
       style="font-size:24px;font-style:normal;font-variant:normal;font-weight:normal;font-stretch:normal;line-height:125%;letter-spacing:0px;word-spacing:0px;fill:#000000;fill-opacity:1;stroke:none;display:inline;font-family:Cantarell;-inkscape-font-specification:Cantarell"
       x="302"
       y="416.36218"
       id="text3871"
       sodipodi:linespacing="125%"><tspan
         sodipodi:role="line"
         id="tspan3873"
         x="302"
         y="416.36218">R</tspan></text>
    <text
       xml:space="preserve"
       style="font-size:24px;font-style:normal;font-variant:normal;font-weight:normal;font-stretch:normal;line-height:125%;letter-spacing:0px;word-spacing:0px;fill:#000000;fill-opacity:1;stroke:none;display:inline;font-family:Cantarell;-inkscape-font-specification:Cantarell"
       x="140.5"
       y="357.86218"
       id="text3867"
       sodipodi:linespacing="125%"><tspan
         sodipodi:role="line"
         id="tspan3869"
         x="140.5"
         y="357.86218">A</tspan></text>
    <text
       xml:space="preserve"
       style="font-size:24px;font-style:normal;font-variant:normal;font-weight:normal;font-stretch:normal;line-height:125%;letter-spacing:0px;word-spacing:0px;fill:#000000;fill-opacity:1;stroke:none;font-family:Cantarell;-inkscape-font-specification:Cantarell"
       x="284"
       y="378.86218"
       id="text4080"
       sodipodi:linespacing="125%"><tspan
         sodipodi:role="line"
         id="tspan4082"
         x="284"
         y="378.86218">R</tspan></text>
    <text
       xml:space="preserve"
       style="font-size:24px;font-style:normal;font-variant:normal;font-weight:normal;font-stretch:normal;line-height:125%;letter-spacing:0px;word-spacing:0px;fill:#000000;fill-opacity:1;stroke:none;font-family:Cantarell;-inkscape-font-specification:Cantarell"
       x="302.5"
       y="239.36218"
       id="text4084"
       sodipodi:linespacing="125%"><tspan
         sodipodi:role="line"
         id="tspan4086"
         x="302.5"
         y="239.36218">G</tspan></text>
    <text
       xml:space="preserve"
       style="font-size:24px;font-style:normal;font-variant:normal;font-weight:normal;font-stretch:normal;line-height:125%;letter-spacing:0px;word-spacing:0px;fill:#000000;fill-opacity:1;stroke:none;font-family:Cantarell;-inkscape-font-specification:Cantarell"
       x="487"
       y="250.86218"
       id="text4088"
       sodipodi:linespacing="125%"><tspan
         sodipodi:role="line"
         id="tspan4090"
         x="487"
         y="250.86218">M</tspan></text>
    <text
       xml:space="preserve"
       style="font-size:24px;font-style:normal;font-variant:normal;font-weight:normal;font-stretch:normal;line-height:125%;letter-spacing:0px;word-spacing:0px;fill:#000000;fill-opacity:1;stroke:none;font-family:Cantarell;-inkscape-font-specification:Cantarell"
       x="494"
       y="296.86218"
       id="text4092"
       sodipodi:linespacing="125%"><tspan
         sodipodi:role="line"
         id="tspan4094"
         x="494"
         y="296.86218">B</tspan></text>
    <text
       xml:space="preserve"
       style="font-size:24px;font-style:normal;font-variant:normal;font-weight:normal;font-stretch:normal;line-height:125%;letter-spacing:0px;word-spacing:0px;fill:#000000;fill-opacity:1;stroke:none;font-family:Cantarell;-inkscape-font-specification:Cantarell"
       x="501.5"
       y="366.36218"
       id="text4096"
       sodipodi:linespacing="125%"><tspan
         sodipodi:role="line"
         id="tspan4098"
         x="501.5"
         y="366.36218">C</tspan></text>
  </g>
  <g
     inkscape:groupmode="layer"
     id="layer13"
     inkscape:label="2-C"
     style="display:inline">
    <path
       style="fill:#edd400;fill-opacity:1;stroke:#2e3436;stroke-width:1;stroke-linecap:butt;stroke-linejoin:miter;stroke-miterlimit:4;stroke-opacity:1;stroke-dasharray:none;display:inline"
       d="m 378.86019,402.50332 c 12.18357,-9.18161 23.69474,-17.21178 28.69848,-30.1127 0.61905,-1.82603 1.73859,-2.65108 3.53554,-2.12132 l 7.42462,2.65165 c 2.69757,1.671 2.22681,3.69404 0.7071,5.83363 -12.64604,11.32152 -26.59785,25.32146 -40.9238,26.42812 -2.2215,-0.0718 -1.47634,-1.10257 0.55806,-2.67938 z"
       id="path3840"
       inkscape:connector-curvature="0"
       sodipodi:nodetypes="ccccccc" />
    <path
       style="fill:#edd400;fill-opacity:1;stroke:#2e3436;stroke-width:1;stroke-linecap:butt;stroke-linejoin:miter;stroke-miterlimit:4;stroke-opacity:1;stroke-dasharray:none"
       d="m 431,373.23718 c 0.42858,-1.39129 1.43369,-0.91015 2.5,-0.5 17.60375,8.76928 24.36209,15.63827 26.35733,20.85882 1.56539,4.09584 1.37387,6.04514 1.45517,8.01618 -0.40771,6.49801 -4.92943,8.2948 -8.8125,2.625 -0.14561,-0.21261 -4.19669,-6.83761 -9.35921,-13.40946 -4.92961,-6.27536 -10.26579,-12.09054 -10.26579,-12.09054 -1.28645,-1.53267 -2.39369,-3.14681 -1.875,-5.5 z"
       id="path3843"
       inkscape:connector-curvature="0"
       sodipodi:nodetypes="ccscsscc" />
  </g>
  <g
     inkscape:groupmode="layer"
     id="layer12"
     inkscape:label="2-Space2"
     style="display:inline">
    <path
       style="fill:#2e3436;fill-opacity:1;stroke:#2e3436;stroke-width:1;stroke-linecap:butt;stroke-linejoin:miter;stroke-miterlimit:4;stroke-opacity:1;stroke-dasharray:none"
       d="m 405.875,359.11218 c 0,0 29.25323,-5.18654 29.875,-5.25 4.39314,-0.44841 5.71668,1.07997 7.72097,2.44822 -0.15386,1.36445 -0.0357,3.37964 0.008,4.5442 -12.58224,0.78186 -25.53022,1.80591 -38.22855,3.63258 0.34003,-1.65997 0.51994,-3.48006 0.625,-5.375 z"
       id="path3837"
       inkscape:connector-curvature="0"
       sodipodi:nodetypes="csccccc" />
  </g>
  <g
     inkscape:groupmode="layer"
     id="layer11"
     inkscape:label="2-N"
     style="display:inline">
    <path
       style="fill:#cc0000;fill-opacity:1;stroke:#2e3436;stroke-width:1;stroke-linecap:butt;stroke-linejoin:miter;stroke-miterlimit:4;stroke-opacity:1;stroke-dasharray:none"
       d="m 397.875,354.98718 c 1.98469,-18.78879 4.61665,-32.00595 -0.625,-45.875 -1.35047,-2.37298 0.40285,-4.57034 3.875,-2.625 l 5.125,3.125 c 7.85829,-0.94162 17.89317,-3.05983 28.25,-6 7.35955,-2.42557 13.8482,-1.81225 20.5,3 3.86165,2.93464 2.75099,5.152 1.5,6.875 -4.94914,4.23204 -2.94683,27.31171 -1.5,41.875 1.12277,5.23305 -2.93798,11.3679 -5.03057,13.60209 -2.97192,3.17302 -7.81759,-5.91829 -6.34443,-13.60209 1.53526,-9.80126 1.43634,-25.91838 0.625,-39.25 -2.0461,-8.80348 -5.33333,-7.77816 -8,-7.75 -24.58908,4.29602 -28.22386,5.19797 -29.125,5.875 l -0.5,12.75 c 9.89986,-0.35501 20.42601,-5.20628 24.375,-4.125 4.14783,1.375 6.40063,3.5 0.75,5.25 -9.75234,1.80712 -18.49038,2.93803 -25.25,2.75 l -0.25,11.75 c 9.15789,0.004 20.52605,-3.88998 23.5,-4 11.35047,1.73455 5.09015,5.90971 2.25,5.25 -16.01465,2.51936 -17.29172,2.50001 -25.75,2.25 l -0.375,13.125 c -0.67627,15.37164 -8.18365,10.9334 -8,-4.25 z"
       id="path3834"
       inkscape:connector-curvature="0"
       sodipodi:nodetypes="ccccccccscccccccccccccc" />
  </g>
  <g
     inkscape:groupmode="layer"
     id="layer10"
     inkscape:label="2-Space"
     style="display:inline">
    <path
       style="fill:#2e3436;fill-opacity:1;stroke:#2e3436;stroke-width:1;stroke-linecap:butt;stroke-linejoin:miter;stroke-miterlimit:4;stroke-opacity:1;stroke-dasharray:none"
       d="m 422.09725,288.51192 c 2.56104,2.28265 4.36209,3.5932 2.52037,6.09696 l -10.87713,13.87161 -5.5631,0.88924 c 2.61305,-6.11005 6.14696,-14.57926 5.46935,-20.79715 2.87937,-0.35355 5.32198,-0.858 7.32551,-1.1232 z"
       id="path3831"
       inkscape:connector-curvature="0"
       sodipodi:nodetypes="ccccccc" />
  </g>
  <g
     inkscape:groupmode="layer"
     id="layer9"
     inkscape:label="2-M"
     style="display:inline">
    <path
       style="fill:#3465a4;fill-opacity:1;stroke:#2e3436;stroke-width:1;stroke-linecap:butt;stroke-linejoin:miter;stroke-miterlimit:4;stroke-opacity:1;stroke-dasharray:none"
       d="m 399.69211,281.88095 c 24.44736,-1.31781 51.90657,-9.36297 57.01049,-9.54594 2.05565,-0.22617 12.78949,4.25287 5.92201,7.15946 l -41.82913,7.98084 -7.2264,1.12316 c -9.95479,2.00814 -22.60465,-5.55549 -13.87697,-6.71752 z"
       id="path3828"
       inkscape:connector-curvature="0"
       sodipodi:nodetypes="cccccc" />
  </g>
  <g
     inkscape:groupmode="layer"
     id="layer8"
     inkscape:label="2-R"
     style="display:inline">
    <path
       style="fill:#73d216;fill-opacity:1;stroke:#2e3436;stroke-width:1;stroke-linecap:butt;stroke-linejoin:miter;stroke-miterlimit:4;stroke-opacity:1;stroke-dasharray:none"
       d="m 372.59375,337.375 c -0.81478,0.0471 -1.44255,0.47343 -2.09375,0.875 -6.97162,4.70145 -16.12354,5.51368 -23.875,7 l -6,-1.125 c -3.49291,-0.62028 -4.10841,1.10635 -3,3.125 9.77379,17.80024 8.21404,23.66406 10.46875,26.53125 2.25472,2.8672 6.12986,7.05868 5.90625,-1.34375 -0.0166,-0.62478 24.125,-3.6875 24.125,-3.6875 6.63732,-1.28762 2.0349,-3.41822 -0.25,-5.375 1.43065,-4.18253 2.50154,-8.41645 5.5,-12.375 3.62803,-3.34291 3.21378,-5.81962 0.25,-7.75 l -7.875,-4.5 c -1.33966,-1.0901 -2.34147,-1.42213 -3.15625,-1.375 z m -5.0625,8.75 c 4.6298,-0.28092 4.55373,2.65312 3.96875,5.15625 0,0 -1.05898,6.80469 -2.03125,11.3125 l -16.71875,3.6875 -3.4375,-16.53125 17.21875,-3.53125 c 0.35181,-0.0482 0.69135,-0.075 1,-0.0937 z"
       id="path3804"
       inkscape:connector-curvature="0" />
  </g>
  <g
     inkscape:groupmode="layer"
     id="layer7"
     inkscape:label="2-G">
    <path
       style="fill:#f57900;stroke:#2e3436;stroke-width:1;stroke-linecap:butt;stroke-linejoin:miter;stroke-miterlimit:4;stroke-opacity:1;stroke-dasharray:none;fill-opacity:1"
       d="m 360.25,267.86218 c -2.19539,-2.45344 -3.10309,-7.75471 4.625,-5.625 l 7.625,3.25 c 4.23712,1.74041 4.8436,3.69102 3.875,6.875 -2.235,6.44067 -3.0345,15.17813 -3.625,24.25 6.24626,-0.60781 10.952,-4.28357 19.25,-0.375 4.51153,2.82295 1.44914,3.56308 0.25,3.875 -5.33195,0.66598 -12.72903,2.36452 -20,4 l -1.5,16.75 c 5.42465,-1.62776 11.89556,-3.37062 16,-0.5 2.74858,2.22599 1.74959,4.14875 -3.75,5.125 -12.553,3.67332 -34.23671,8.29495 -38.875,4.875 -3.87049,-2.5241 -1.16935,-3.43387 1.25,-3.75 5.82637,-0.59617 11.72085,-1.55005 17.875,-3.5 l 0.5,-17.375 -24.375,5.125 c -5.00681,1.31291 -7.2415,0.69215 -12.375,-3.375 -0.33948,-0.76147 -2.04498,-1.42536 2,-2.5 l 34.625,-6 c -0.23972,-15.53237 1.14246,-26.18737 -3.375,-31.125 z"
       id="path3801"
       inkscape:connector-curvature="0"
       sodipodi:nodetypes="cccccccccccccccccccc" />
  </g>
  <g
     inkscape:groupmode="layer"
     id="layer6"
     inkscape:label="1-R">
    <path
       style="fill:#3465a4;stroke:#2e3436;stroke-width:1;stroke-linecap:butt;stroke-linejoin:miter;stroke-miterlimit:4;stroke-opacity:1;stroke-dasharray:none;fill-opacity:1"
       d="M 257.875 361.59375 C 250.68461 361.8993 237.14293 370.9535 212.84375 370.53125 C 203.95753 367.45486 204.05275 370.49043 207.53125 376.53125 C 210.48746 384.41911 211.79035 389.4425 213.1875 396.6875 C 215.05348 404.70137 219.68886 407.22783 219.90625 400.75 L 259.5 397.75 C 265.23135 398.31277 265.90756 396.35931 260.75 392.625 C 264.43035 384.56217 267.32718 379.6577 269.59375 377.25 C 281.41021 370.88659 264.19674 364.17934 260.5625 362.0625 C 259.78134 361.69565 258.9022 361.5501 257.875 361.59375 z M 251.4375 369.96875 C 255.5777 369.93947 257.94592 371.15697 257.21875 374.78125 L 252.78125 391.03125 L 219.90625 395.625 C 218.73893 389.81671 217.95056 382.8648 217.25 375.65625 C 229.12165 374.61216 243.53347 370.02466 251.4375 369.96875 z "
       id="path3794" />
    <path
       style="fill:#2e3436;stroke:#2e3436;stroke-width:1;stroke-linecap:butt;stroke-linejoin:miter;stroke-miterlimit:4;stroke-opacity:1;stroke-dasharray:none;fill-opacity:1"
       d="m 208.11036,354.49198 c -6.55316,19.06749 -15.38304,38.18572 -36.99052,45.03387 -7.21502,0.27185 0.0374,-3.65928 0.53033,-4.24264 20.03948,-13.8999 26.5587,-32.85368 28.46105,-41.33986 -0.43453,2.97729 4.6534,7.06931 7.99914,0.54863 z"
       id="path3798"
       inkscape:connector-curvature="0"
       sodipodi:nodetypes="ccccc" />
  </g>
  <g
     inkscape:groupmode="layer"
     id="layer5"
     inkscape:label="1-Space" />
  <g
     inkscape:groupmode="layer"
     id="layer4"
     inkscape:label="1-A">
    <path
       style="fill:#f57900;stroke:#2e3436;stroke-width:1;stroke-linecap:butt;stroke-linejoin:miter;stroke-miterlimit:4;stroke-opacity:1;stroke-dasharray:none;fill-opacity:1"
       d="M 245.75 307.09375 C 233.27984 307.0996 217.77602 314.89263 213.375 315.03125 L 208.59375 312.71875 C 206.43979 311.64249 200.45891 309.08656 204.1875 316.625 C 206.4793 330.57791 202.90399 339.02829 200.125 353.90625 C 200.06185 358.07209 205.53254 360.19631 208.0625 354.4375 C 208.0625 354.4375 237.71892 349.85067 238.28125 350.75 C 242.80336 357.98219 246.21679 356.92242 249.4375 349.84375 C 250.06345 348.46799 257.23247 318.56991 258.625 319.96875 C 262.7337 316.37913 262.3962 314.64382 256.6875 310.25 C 253.72845 307.95094 249.90672 307.0918 245.75 307.09375 z M 241.71875 313.71875 C 247.0227 313.87358 247.90318 316.94766 246.96875 322.09375 C 245.10434 329.82705 243.06217 341.63533 239.71875 345.25 C 232.80265 344.54637 220.54854 347.57967 209.125 350.03125 L 211.96875 337.3125 L 234.0625 334.28125 C 243.35648 334.28125 235.12269 327.74112 230.53125 328.625 C 229.31612 328.85892 213.03125 333.0625 213.03125 333.0625 C 213.64664 328.72815 214.41437 324.55162 215.5 320.6875 C 228.91675 315.72869 237.03879 313.58214 241.71875 313.71875 z "
       id="path3769" />
  </g>
  <g
     inkscape:groupmode="layer"
     id="layer3"
     inkscape:label="1-I">
    <path
       style="fill:#73d216;stroke:#2e3436;stroke-width:1;stroke-linecap:butt;stroke-linejoin:miter;stroke-miterlimit:4;stroke-opacity:1;stroke-dasharray:none;fill-opacity:1"
       d="m 234.22913,294.87405 c 4.79791,2.63269 2.80534,10.65265 -2.47488,8.3085 -18.60151,-12.57662 -11.52277,-19.30126 2.47488,-8.3085 z"
       id="path3766"
       inkscape:connector-curvature="0"
       sodipodi:nodetypes="ccc" />
  </g>
  <g
     inkscape:groupmode="layer"
     id="layer2"
     inkscape:label="1-O"
     style="display:inline">
    <path
       style="fill:#cc0000;fill-opacity:1;stroke:#2e3436;stroke-width:1;stroke-linecap:butt;stroke-linejoin:miter;stroke-miterlimit:4;stroke-opacity:1;stroke-dasharray:none;display:inline"
       d="m 218.92678,254.99606 c 0.46263,2.60587 0.2189,6.24151 -0.67678,9.86612 -10.04663,29.74784 -32.80856,47.14747 -53.83319,65.4519 -5.22424,3.25588 -1.00729,3.4743 2.88625,1.76893 2.91605,-1.27723 6.76427,-3.25319 10.94448,-6.06801 8.36042,-5.62962 18.25827,-14.10691 26.1489,-23.50638 7.93835,-9.12517 18.44876,-24.14806 24.17678,-32.49999 10.97116,11.6195 23.62208,25.36139 34.5,34.46967 l 9.34835,7.25 c 2.07077,1.34629 5.55576,2.02205 7.62653,1.9571 l 5.26776,-0.17677 18.1967,-1.89645 c 3.00924,-0.21932 3.38499,-1.83646 0.45191,-3.41421 l -11.13173,-3.76777 c -5.98641,-1.94107 -13.91737,-5.11957 -20.02728,-7.71447 -12.55659,-5.79431 -22.15967,-13.06753 -32.51041,-21.5104 l -9.72183,-8.2396 2.7929,-3.79289 c 1.67384,-1.98989 -1.63518,-5.39399 -4.61612,-7.56066 -4.90729,-2.41615 -9.79035,-3.12144 -9.82322,-0.61612 z"
       id="path3761"
       inkscape:connector-curvature="0"
       sodipodi:nodetypes="cccssccccccccccccccc" />
  </g>
</svg>
